<svg xmlns="http://www.w3.org/2000/svg" width="238" height="226" viewBox="0 0 238 226" fill="green"><polygon points="119,0 148,86 238,86 166,140 192,226 119,175 46,226 72,140 0,86 90,86" style="opacity: 25%;"></polygon><path d="M107.6291,33.7206C111.3005,22.8331 126.6995,22.8331 130.3709,33.7206L145.2465,77.8344C146.892,82.7142 151.4676,86 156.6174,86H202C213.5321,86 218.4257,100.6807 209.2,107.6L172.7159,134.963C168.6831,137.9877 166.9706,143.2104 168.4294,148.0357L181.9826,192.8656C185.278,203.7658 172.9586,212.6971 163.6236,206.1754L125.8725,179.8013C121.7446,176.9175 116.2554,176.9175 112.1275,179.8013L74.3764,206.1754C65.0414,212.6971 52.722,203.7658 56.0174,192.8656L69.5706,148.0357C71.0294,143.2104 69.3169,137.9877 65.2841,134.963L28.8,107.6C19.5743,100.6807 24.4679,86 36,86H81.3826C86.5324,86 91.108,82.7142 92.7535,77.8344Z"></path></svg>
